<?xml version="1.0" encoding="UTF-8" standalone="no"?>
<svg
   xmlns:dc="http://purl.org/dc/elements/1.1/"
   xmlns:cc="http://creativecommons.org/ns#"
   xmlns:rdf="http://www.w3.org/1999/02/22-rdf-syntax-ns#"
   xmlns:svg="http://www.w3.org/2000/svg"
   xmlns="http://www.w3.org/2000/svg"
   viewBox="0 0 172.23813 35.000019"
   height="35.000019"
   width="172.23813"
   xml:space="preserve"
   id="svg2"
   version="1.1"><metadata
     id="metadata8"><rdf:RDF><cc:Work
         rdf:about=""><dc:format>image/svg+xml</dc:format><dc:type
           rdf:resource="http://purl.org/dc/dcmitype/StillImage" /><dc:title></dc:title></cc:Work></rdf:RDF></metadata><defs
     id="defs6"><clipPath
       id="clipPath18"
       clipPathUnits="userSpaceOnUse"><path
         id="path16"
         d="M 0,670.884 H 1920 V 0 H 0 Z" /></clipPath></defs><g
     style="stroke-width:3.53485155"
     transform="matrix(0.37719676,0,0,-0.37719676,-91.811088,141.55508)"
     id="g10"><g
       transform="matrix(0.29254912,0,0,0.29254912,191.43393,230.90444)"
       style="stroke-width:12.08293056"
       id="g12"><g
         style="stroke-width:12.08293056"
         clip-path="url(#clipPath18)"
         id="g14"><g
           style="stroke-width:12.08293056"
           transform="translate(403.7856,233.7619)"
           id="g20"><path
             id="path22"
             style="fill:#328fc7;fill-opacity:1;fill-rule:nonzero;stroke:none;stroke-width:12.08293056"
             d="m 0,0 h -54.901 c 0.03,0.148 0.047,0.302 0.047,0.458 v 21.034 c 11.778,2.161 22.697,6.746 32.197,13.282 L -7.826,19.942 c 0.875,-0.876 2.308,-0.876 3.184,0.001 l 18.297,18.299 c 0.877,0.877 0.878,2.312 0.004,3.188 l -14.81,14.811 c 6.571,9.503 11.2,20.427 13.386,32.223 h 20.903 c 0.162,0 0.319,0.019 0.471,0.052 V 33.639 C 33.609,15.153 18.54,0 0,0 m -173.655,33.639 v 54.868 c 0.138,-0.027 0.28,-0.043 0.426,-0.043 h 20.903 c 2.186,-11.796 6.813,-22.72 13.386,-32.223 L -153.749,41.43 c -0.876,-0.876 -0.876,-2.309 0,-3.186 l 18.297,-18.3 c 0.876,-0.876 2.312,-0.878 3.187,-0.002 l 14.831,14.833 c 9.5,-6.536 20.419,-11.121 32.196,-13.283 V 0.458 c 0,-0.156 0.017,-0.31 0.049,-0.458 h -54.854 c -18.474,0 -33.612,15.153 -33.612,33.639 m 33.612,173.669 h 54.851 c -0.03,-0.146 -0.046,-0.297 -0.046,-0.451 v -20.733 c -11.85,-2.176 -22.826,-6.811 -32.367,-13.412 l -14.66,14.663 c -0.876,0.876 -2.311,0.874 -3.187,-0.003 l -18.297,-18.299 c -0.876,-0.877 -0.876,-2.31 -0.001,-3.185 l 14.683,-14.685 c -6.563,-9.541 -11.155,-20.515 -13.305,-32.351 h -20.857 c -0.146,0 -0.288,-0.017 -0.426,-0.043 v 54.957 c 0,18.463 15.138,33.542 33.612,33.542 M 33.609,173.766 V 118.8 c -0.152,0.033 -0.309,0.052 -0.471,0.052 H 12.28 c -2.149,11.836 -6.74,22.81 -13.302,32.351 l 14.681,14.685 c 0.875,0.875 0.873,2.309 -0.004,3.186 l -18.297,18.3 c -0.876,0.876 -2.309,0.877 -3.184,0.001 l -14.66,-14.662 c -9.541,6.6 -20.517,11.236 -32.368,13.411 v 20.733 c 0,0.154 -0.015,0.305 -0.045,0.451 H 0 c 18.54,0 33.609,-15.079 33.609,-33.542 m 29.29,85.987 h -265.867 c -12.736,0 -23.173,-10.415 -23.173,-23.137 V -29.308 c 0,-12.721 10.437,-23.129 23.173,-23.129 H 62.899 c 12.737,0 23.15,10.408 23.15,23.129 v 265.924 c 0,12.722 -10.413,23.137 -23.15,23.137" /></g><g
           style="stroke-width:12.08293056"
           transform="translate(593.8254,361.1445)"
           id="g24"><path
             id="path26"
             style="fill:#2c3e50;fill-opacity:1;fill-rule:nonzero;stroke:none;stroke-width:12.08293056"
             d="m 0,0 h 43.156 l 45.59,-138.17 h 0.7 L 133.297,0 h 41.068 L 109.98,-179.934 H 65.429 Z" /></g><g
           style="stroke-width:12.08293056"
           transform="translate(893.826,271.351)"
           id="g28"><path
             id="path30"
             style="fill:#2c3e50;fill-opacity:1;fill-rule:nonzero;stroke:none;stroke-width:12.08293056"
             d="m 0,0 c -6.035,-3.949 -13.46,-6.323 -22.273,-7.133 -8.818,-0.816 -17.637,-2.036 -26.45,-3.656 -4.178,-0.697 -8.237,-1.685 -12.178,-2.958 -3.952,-1.279 -7.43,-3.018 -10.445,-5.22 -3.015,-2.208 -5.392,-5.107 -7.136,-8.703 -1.739,-3.599 -2.609,-7.949 -2.609,-13.05 0,-4.41 1.276,-8.125 3.828,-11.137 2.552,-3.017 5.624,-5.394 9.226,-7.136 3.59,-1.739 7.537,-2.958 11.833,-3.653 4.291,-0.697 8.175,-1.044 11.659,-1.044 4.403,0 9.163,0.576 14.267,1.739 5.103,1.16 9.919,3.133 14.447,5.916 4.523,2.787 8.288,6.321 11.309,10.617 3.015,4.291 4.522,9.57 4.522,15.834 z m 39.679,-50.118 c 0,-4.872 0.638,-8.353 1.914,-10.439 1.27,-2.089 3.765,-3.133 7.48,-3.133 h 4.178 c 1.621,0 3.478,0.228 5.567,0.697 v -27.495 c -1.389,-0.463 -3.19,-0.985 -5.392,-1.567 -2.207,-0.576 -4.471,-1.098 -6.786,-1.566 -2.326,-0.463 -4.647,-0.811 -6.961,-1.045 -2.321,-0.229 -4.297,-0.347 -5.917,-0.347 -8.124,0 -14.854,1.626 -20.184,4.872 -5.341,3.247 -8.824,8.929 -10.445,17.053 -7.887,-7.655 -17.575,-13.225 -29.058,-16.706 -11.484,-3.48 -22.567,-5.219 -33.237,-5.219 -8.125,0 -15.899,1.104 -23.317,3.306 -7.43,2.201 -13.985,5.448 -19.665,9.744 -5.691,4.291 -10.213,9.745 -13.578,16.359 -3.365,6.611 -5.041,14.323 -5.041,23.145 0,11.136 2.026,20.184 6.086,27.145 4.059,6.961 9.4,12.409 16.011,16.358 6.611,3.944 14.036,6.787 22.273,8.526 8.237,1.741 16.531,3.074 24.886,4.002 7.188,1.392 14.036,2.377 20.534,2.959 6.493,0.576 12.235,1.567 17.226,2.958 4.99,1.392 8.931,3.535 11.833,6.439 2.902,2.899 4.353,7.25 4.353,13.051 0,5.101 -1.219,9.278 -3.653,12.53 -2.439,3.247 -5.454,5.742 -9.05,7.484 -3.602,1.739 -7.605,2.896 -12.009,3.478 -4.409,0.578 -8.587,0.872 -12.528,0.872 -11.139,0 -20.308,-2.323 -27.495,-6.961 -7.192,-4.644 -11.257,-11.834 -12.183,-21.579 h -39.673 c 0.694,11.6 3.478,21.232 8.35,28.887 4.872,7.656 11.077,13.801 18.62,18.445 7.537,4.641 16.068,7.887 25.581,9.745 9.513,1.854 19.258,2.786 29.234,2.786 8.818,0 17.519,-0.932 26.106,-2.786 8.581,-1.858 16.294,-4.873 23.142,-9.048 6.843,-4.178 12.359,-9.572 16.531,-16.183 4.178,-6.614 6.267,-14.677 6.267,-24.19 z" /></g><g
           style="stroke-width:12.08293056"
           transform="translate(966.9164,361.1445)"
           id="g32"><path
             id="path34"
             style="fill:#2c3e50;fill-opacity:1;fill-rule:nonzero;stroke:none;stroke-width:12.08293056"
             d="m 0,0 h 37.24 v -34.803 h 0.694 c 1.157,4.872 3.421,9.623 6.786,14.269 3.36,4.638 7.425,8.875 12.184,12.703 4.748,3.828 10.033,6.899 15.831,9.223 5.798,2.317 11.715,3.48 17.75,3.48 4.641,0 7.831,-0.121 9.575,-0.35 1.739,-0.231 3.535,-0.466 5.392,-0.694 v -38.284 c -2.783,0.463 -5.629,0.869 -8.525,1.219 -2.908,0.347 -5.742,0.522 -8.531,0.522 -6.73,0 -13.047,-1.338 -18.964,-4.002 -5.917,-2.671 -11.083,-6.614 -15.486,-11.834 -4.415,-5.222 -7.893,-11.659 -10.445,-19.317 -2.552,-7.656 -3.828,-16.477 -3.828,-26.451 v -85.615 H 0 Z" /></g><g
           style="stroke-width:12.08293056"
           transform="translate(1172.7791,188.5187)"
           id="g36"><path
             id="path38"
             style="fill:#2c3e50;fill-opacity:1;fill-rule:nonzero;stroke:none;stroke-width:12.08293056"
             d="m 0,0 c 11.856,0 21.861,2.552 30.007,7.656 8.136,5.101 14.77,11.774 19.891,20.014 5.115,8.232 8.835,17.516 11.161,27.842 2.332,10.321 3.495,20.588 3.495,30.801 0,9.973 -1.338,19.605 -4.014,28.887 -2.676,9.276 -6.747,17.575 -12.212,24.883 -5.471,7.309 -12.218,13.166 -20.24,17.576 -8.028,4.406 -17.389,6.614 -28.088,6.614 -11.636,0 -21.753,-1.976 -30.363,-5.917 -8.61,-3.949 -15.707,-9.397 -21.285,-16.359 -5.583,-6.961 -9.773,-15.198 -12.562,-24.708 -2.794,-9.519 -4.189,-19.84 -4.189,-30.976 0,-10.908 1.282,-21.578 3.839,-32.02 2.558,-10.439 6.572,-19.665 12.043,-27.667 5.465,-8.006 12.5,-14.445 21.11,-19.318 C -22.803,2.436 -12.336,0 0,0 m -81.621,241.188 h 12.878 V 133.644 h 0.694 c 2.558,6.962 6.16,13.054 10.818,18.273 4.646,5.22 9.998,9.626 16.045,13.225 6.047,3.594 12.556,6.264 19.534,8.006 6.979,1.739 14.188,2.608 21.635,2.608 13.256,0 24.706,-2.32 34.36,-6.958 9.649,-4.647 17.728,-11.023 24.243,-19.142 6.516,-8.124 11.337,-17.578 14.482,-28.365 3.139,-10.789 4.708,-22.45 4.708,-34.978 0,-21.35 -2.907,-38.459 -8.722,-51.334 C 63.239,22.1 56.26,12.234 48.125,5.395 39.984,-1.451 31.492,-5.976 22.657,-8.178 13.815,-10.38 6.256,-11.484 -0.017,-11.484 c -11.867,0 -21.928,1.858 -30.182,5.567 -8.254,3.709 -15.058,8.06 -20.41,13.053 -5.352,4.986 -9.417,9.917 -12.206,14.789 -2.795,4.873 -4.539,8.469 -5.234,10.79 h -0.683 V -7.308 h -12.889 z" /></g><g
           style="stroke-width:12.08293056"
           transform="translate(1388.7307,282.8373)"
           id="g40"><path
             id="path42"
             style="fill:#2c3e50;fill-opacity:1;fill-rule:nonzero;stroke:none;stroke-width:12.08293056"
             d="m 0,0 c -3.252,-3.949 -8.181,-6.614 -14.792,-8.006 -6.611,-1.391 -13.979,-2.436 -22.098,-3.133 l -22.278,-2.086 c -6.498,-0.698 -12.997,-1.688 -19.489,-2.959 -6.499,-1.278 -12.353,-3.427 -17.576,-6.439 -5.216,-3.017 -9.456,-7.136 -12.703,-12.356 -3.252,-5.219 -4.872,-12.008 -4.872,-20.358 0,-13.226 4.178,-23.032 12.528,-29.409 8.356,-6.386 19.839,-9.573 34.456,-9.573 15.08,0 27.027,2.724 35.851,8.178 8.813,5.451 15.537,11.715 20.184,18.795 4.641,7.074 7.599,13.923 8.875,20.534 1.27,6.614 1.914,11.077 1.914,13.4 z m 0,-66.126 h -0.694 c -2.089,-5.341 -5.11,-10.389 -9.051,-15.142 -3.946,-4.757 -8.762,-8.994 -14.442,-12.703 -5.691,-3.713 -12.127,-6.612 -19.319,-8.701 -7.193,-2.089 -15.086,-3.13 -23.662,-3.13 -19.032,0 -33.762,4.121 -44.201,12.353 -10.445,8.234 -15.661,20.937 -15.661,38.112 0,10.439 2.089,18.967 6.261,25.578 4.178,6.614 9.451,11.834 15.836,15.661 6.38,3.831 13.454,6.555 21.228,8.181 7.775,1.621 15.255,2.784 22.454,3.481 l 20.533,1.739 c 9.508,0.697 16.994,1.795 22.448,3.305 5.448,1.508 9.57,3.597 12.353,6.264 2.784,2.665 4.522,6.092 5.223,10.267 0.694,4.178 1.044,9.398 1.044,15.664 0,4.873 -0.932,9.395 -2.789,13.573 -1.858,4.175 -4.754,7.884 -8.7,11.136 -3.947,3.247 -9.045,5.799 -15.312,7.656 -6.266,1.855 -13.922,2.786 -22.972,2.786 -16.006,0 -28.946,-3.949 -38.804,-11.833 -9.863,-7.89 -15.26,-19.84 -16.181,-35.848 h -13.228 c 0.926,19.718 7.249,34.51 18.97,44.376 11.709,9.857 28.365,14.789 49.943,14.789 21.578,0 37.29,-4.235 47.159,-12.703 C 8.294,60.263 13.222,49.186 13.222,35.498 V -68.563 c 0,-2.557 0.057,-5.106 0.175,-7.658 0.119,-2.555 0.525,-4.872 1.22,-6.961 0.694,-2.086 1.857,-3.775 3.483,-5.045 1.621,-1.279 3.941,-1.914 6.956,-1.914 2.32,0 5.572,0.347 9.745,1.042 v -11.136 c -3.478,-0.929 -7.08,-1.392 -10.789,-1.392 -5.336,0 -9.57,0.697 -12.704,2.089 -3.127,1.392 -5.51,3.246 -7.13,5.567 -1.626,2.317 -2.733,5.047 -3.308,8.18 C 0.288,-82.66 0,-79.239 0,-75.524 Z" /></g><g
           style="stroke-width:12.08293056"
           transform="translate(1438.8484,240.7253)"
           id="g44"><path
             id="path46"
             style="fill:#2c3e50;fill-opacity:1;fill-rule:nonzero;stroke:none;stroke-width:12.08293056"
             d="m 0,0 c 0.463,-8.353 2.315,-15.724 5.567,-22.1 3.246,-6.386 7.48,-11.834 12.703,-16.359 5.222,-4.525 11.314,-7.949 18.27,-10.267 6.961,-2.323 14.498,-3.481 22.622,-3.481 5.799,0 12.009,0.523 18.62,1.567 6.617,1.045 12.76,2.958 18.451,5.742 5.679,2.783 10.377,6.668 14.091,11.658 3.71,4.988 5.567,11.312 5.567,18.97 0,9.974 -3.015,17.516 -9.044,22.62 -6.036,5.101 -13.635,9.05 -22.798,11.834 -9.169,2.786 -19.026,5.047 -29.584,6.786 -10.558,1.742 -20.421,4.353 -29.584,7.831 -9.169,3.48 -16.762,8.409 -22.792,14.792 -6.041,6.379 -9.05,15.718 -9.05,28.017 0,8.816 1.965,16.184 5.917,22.1 3.94,5.917 8.988,10.614 15.136,14.095 6.148,3.481 13.053,5.971 20.709,7.484 7.655,1.507 15.317,2.261 22.972,2.261 9.276,0 17.977,-1.045 26.101,-3.131 8.119,-2.089 15.142,-5.454 21.059,-10.095 5.917,-4.643 10.552,-10.56 13.917,-17.747 3.365,-7.196 5.047,-15.896 5.047,-26.103 h -13.222 c 0,8.118 -1.338,15.079 -4.003,20.881 -2.671,5.798 -6.386,10.495 -11.14,14.094 -4.759,3.597 -10.382,6.267 -16.88,8.006 -6.499,1.742 -13.454,2.611 -20.879,2.611 -6.035,0 -12.127,-0.581 -18.275,-1.742 -6.148,-1.163 -11.659,-3.13 -16.531,-5.916 C 18.095,101.624 14.092,98.025 10.964,93.619 7.831,89.209 6.261,83.874 6.261,77.61 c 0,-7.196 1.745,-12.997 5.223,-17.4 3.477,-4.413 8.056,-7.953 13.747,-10.617 5.685,-2.671 12.06,-4.819 19.139,-6.439 7.08,-1.626 14.211,-3.252 21.409,-4.873 8.813,-1.626 17.107,-3.54 24.881,-5.741 7.774,-2.208 14.499,-5.22 20.19,-9.048 5.679,-3.831 10.145,-8.762 13.397,-14.792 3.246,-6.038 4.872,-13.694 4.872,-22.97 0,-9.744 -2.207,-17.75 -6.611,-24.014 -4.409,-6.267 -9.982,-11.311 -16.706,-15.139 -6.735,-3.831 -14.216,-6.496 -22.448,-8.006 -8.242,-1.507 -16.305,-2.261 -24.192,-2.261 -10.213,0 -19.664,1.335 -28.364,4 -8.7,2.665 -16.3,6.727 -22.792,12.181 -6.499,5.451 -11.608,12.121 -15.317,20.014 -3.715,7.884 -5.686,17.053 -5.917,27.495 z" /></g><g
           style="stroke-width:12.08293056"
           transform="translate(1724.9265,280.4012)"
           id="g48"><path
             id="path50"
             style="fill:#2c3e50;fill-opacity:1;fill-rule:nonzero;stroke:none;stroke-width:12.08293056"
             d="m 0,0 c -0.469,9.745 -2.095,18.967 -4.884,27.667 -2.794,8.7 -6.921,16.359 -12.387,22.97 -5.47,6.614 -12.099,11.887 -19.895,15.837 -7.797,3.94 -16.695,5.916 -26.694,5.916 -10.704,0 -20.127,-2.035 -28.268,-6.091 -8.147,-4.063 -15.007,-9.398 -20.585,-16.009 -5.589,-6.614 -9.886,-14.329 -12.912,-23.145 -3.026,-8.819 -4.889,-17.869 -5.583,-27.145 z m -131.558,-11.486 v -2.089 c 0,-10.439 1.394,-20.418 4.189,-29.931 2.789,-9.516 6.916,-17.869 12.387,-25.059 5.465,-7.193 12.33,-12.876 20.59,-17.053 8.254,-4.176 17.852,-6.264 28.788,-6.264 17.914,0 32.107,4.697 42.575,14.094 10.467,9.398 17.677,22.448 21.634,39.154 h 13.228 c -3.946,-20.881 -12.477,-36.89 -25.581,-48.029 -13.109,-11.136 -30.453,-16.703 -52.031,-16.703 -13.223,0 -24.768,2.38 -34.632,7.133 -9.863,4.754 -18.094,11.253 -24.705,19.49 -6.617,8.234 -11.546,17.979 -14.792,29.236 -3.252,11.25 -4.873,23.371 -4.873,36.368 0,12.531 1.677,24.536 5.042,36.023 3.365,11.483 8.412,21.578 15.142,30.278 6.73,8.7 15.142,15.662 25.231,20.881 10.095,5.223 21.985,7.831 35.676,7.831 12.528,0 23.605,-2.321 33.237,-6.959 9.626,-4.646 17.688,-10.964 24.186,-18.969 C 0.226,49.943 5.16,40.658 8.525,30.103 c 3.359,-10.56 5.048,-21.871 5.048,-33.934 0,-1.163 -0.063,-2.495 -0.176,-4 -0.118,-1.513 -0.175,-2.732 -0.175,-3.655 z" /></g></g></g></g></svg>