<?xml version="1.0" encoding="UTF-8" standalone="no"?><svg xmlns:svg="http://www.w3.org/2000/svg" xmlns="http://www.w3.org/2000/svg" version="1.1" preserveAspectRatio="xMinYMin" viewBox="0 0 611 646"><path fill="#2ba9e0" d="M 161.14248,607.07981 C 135.931,577.51327 120.7662,539.33875 120.7662,497.60876 c 0,-87.01545 66.15644,-158.68624 151.648,-168.60413 -14.59612,-20.95856 -23.31588,-46.40824 -23.31588,-73.72922 0,-71.85792 58.95316,-129.86822 131.7442,-129.86822 6.06592,0 11.94228,0.37426 17.62908,1.12278 C 355.44148,89.85249 312.41136,52.61362 278.48012,12.00641 295.73008,190.15417 114.1316,125.40719 46.8378,289.70733 1.91208,399.73977 42.47792,535.78328 161.14248,607.07981 Z m 143.1178,-351.8044 c 0,41.72999 34.31036,75.41339 76.39268,75.41339 42.08232,0 76.58224,-33.87053 76.58224,-75.41339 0,-41.72999 -34.31036,-75.41339 -76.39268,-75.41339 -42.08232,0 -76.58224,33.6834 -76.58224,75.41339 z m 112.97776,124.81571 c 29.57136,30.50219 47.76912,71.85792 47.76912,117.51764 0,57.82317 -29.19224,108.72253 -73.73884,139.41185 82.4586,-25.07542 150.7002,-86.26693 181.21936,-160.37041 42.27188,-102.54724 2.8434,-179.6448 -63.12348,-249.63142 2.08516,8.98224 3.22252,18.52587 3.22252,28.0695 -0.18956,59.50734 -40.37628,109.47105 -95.34868,125.00284 z m -124.35136,18.90013 c -55.16196,0 -99.89812,44.16268 -99.89812,98.61751 0,54.45483 44.73616,98.61751 99.89812,98.61751 55.16196,0 99.89812,-44.16268 99.89812,-98.61751 0,-54.45483 -44.73616,-98.61751 -99.89812,-98.61751 z" /></svg>
