<svg width="118" height="20" viewBox="0 0 118 20" fill="none" xmlns="http://www.w3.org/2000/svg">
<g id="Type=Dark">
<g id="Asset 1">
<path id="Emblem" fill-rule="evenodd" clip-rule="evenodd" d="M18.5173 0H1.48435C0.66611 0.0022091 0.00309809 0.664474 0 1.48268V18.5181C0.00310034 19.3362 0.66624 19.9982 1.48435 20H18.5173C19.3349 19.9978 19.9973 19.3358 20 18.5181V1.48268C19.9978 0.664735 19.3352 0.00221365 18.5173 0ZM16.6405 5.50848V9.02984C16.6306 9.02865 16.6206 9.02865 16.6107 9.02984H15.2738C15.1415 8.28542 14.8519 7.57777 14.4244 6.95409L15.3649 6.01292C15.4207 5.95642 15.4207 5.86555 15.3649 5.80905L14.1899 4.63661C14.1334 4.5808 14.0426 4.5808 13.9861 4.63661L13.0473 5.57617C12.4246 5.14596 11.7176 4.85314 10.9731 4.71719V3.38842C10.9739 3.37877 10.9739 3.36906 10.9731 3.35941H14.4897C15.676 3.36163 16.6374 4.32224 16.6405 5.50848ZM9.03339 3.35941H5.51593C4.32924 3.36162 3.36717 4.32185 3.36274 5.50848V9.02662C3.37158 9.02582 3.38048 9.02582 3.38933 9.02662H4.72621C4.86036 8.28331 5.15067 7.57692 5.57797 6.95409L4.63757 6.01292C4.58131 5.9566 4.58131 5.86536 4.63757 5.80905L5.81005 4.63661C5.86655 4.5808 5.95743 4.5808 6.01393 4.63661L6.95353 5.57617C7.57772 5.14498 8.28684 4.85212 9.03339 4.71719V3.38842C9.0326 3.37877 9.0326 3.36906 9.03339 3.35941ZM3.36274 14.4891V10.9702C3.37158 10.971 3.38048 10.971 3.38933 10.9702H4.72863C4.86501 11.7125 5.15723 12.4175 5.58603 13.0387L4.63757 13.9863C4.58131 14.0426 4.58131 14.1338 4.63757 14.1902L5.81005 15.3626C5.86637 15.4188 5.95761 15.4188 6.01393 15.3626L6.96401 14.4126C7.58354 14.8382 8.28598 15.1281 9.02533 15.2635V16.6108C9.0241 16.6204 9.0241 16.6302 9.02533 16.6398H5.51593C4.32953 16.6354 3.36848 15.6755 3.36274 14.4891ZM10.9706 16.6438H14.4873C15.676 16.6412 16.6387 15.6778 16.6405 14.4891V10.971C16.6307 10.9735 16.6207 10.9748 16.6107 10.975H15.2714C15.1343 11.7157 14.8421 12.419 14.414 13.0387L15.36 13.9863C15.4158 14.0428 15.4158 14.1337 15.36 14.1902L14.1875 15.3626C14.1312 15.4188 14.04 15.4188 13.9836 15.3626L13.0336 14.4126C12.4137 14.8387 11.7106 15.1287 10.9706 15.2635V16.6148C10.9715 16.6245 10.9715 16.6342 10.9706 16.6438Z" fill="#0D6EFD"/>
<g id="Text">
<path fill-rule="evenodd" clip-rule="evenodd" d="M66.4542 0H65.4077V19.6235H66.4591V16.4661H66.5152C66.6265 16.7634 66.7689 17.0488 66.9401 17.3178C67.2088 17.753 67.5432 18.1466 67.9322 18.4853C68.4232 18.9134 68.9835 19.2601 69.5905 19.5115C70.261 19.8046 71.0784 19.9511 72.0426 19.9511C72.5523 19.9511 73.1662 19.8643 73.8845 19.6906C74.6027 19.517 75.2925 19.1597 75.9539 18.6187C76.6153 18.0798 77.1821 17.3015 77.6544 16.2838C78.1268 15.266 78.3629 13.9151 78.3629 12.2312C78.3709 11.2973 78.2421 10.367 77.9803 9.4684C77.7447 8.65356 77.3448 7.89233 76.8038 7.22898C76.2732 6.58726 75.5998 6.0707 74.8343 5.71814C74.05 5.34977 73.1194 5.16559 72.0426 5.16559C71.45 5.1641 70.8595 5.23329 70.2843 5.37161C69.7263 5.50524 69.1917 5.71802 68.6975 6.0031C68.2085 6.28307 67.7672 6.63511 67.3894 7.04664C67.0051 7.46885 66.707 7.95829 66.5111 8.4888H66.4542V0ZM74.4767 18.4339C73.8153 18.837 73.0028 19.0386 72.0392 19.0386L72.0359 19.0402C71.0338 19.0402 70.1834 18.8478 69.4847 18.4632C68.7989 18.0911 68.2116 17.5689 67.7695 16.9381C67.3115 16.2732 66.9812 15.5332 66.7945 14.7539C66.5869 13.9271 66.4824 13.079 66.4833 12.228C66.4757 11.4007 66.59 10.5767 66.823 9.78096C67.0277 9.07174 67.3748 8.40886 67.8443 7.83044C68.3075 7.27334 68.9 6.83078 69.5732 6.53905C70.2725 6.22804 71.0948 6.07254 72.04 6.07254C72.9115 6.07254 73.6723 6.24646 74.3223 6.5943C74.9667 6.93635 75.5276 7.40941 75.9668 7.98121C76.418 8.57184 76.7543 9.23772 76.9588 9.94594C77.1772 10.6871 77.2867 11.4546 77.2838 12.2256C77.2827 13.0441 77.1873 13.8598 76.9994 14.6576C76.8267 15.4345 76.5202 16.1775 76.0927 16.8552C75.6866 17.4956 75.1335 18.0359 74.4767 18.4339Z" fill="#212529"/>
<path d="M58.3391 5.41204H55.3133V19.6158H58.5414V12.8573C58.5265 12.1496 58.6289 11.4441 58.8444 10.7679C59.0249 10.2116 59.3131 9.69398 59.6935 9.24282C60.0347 8.84324 60.4648 8.52398 60.9512 8.309C61.4365 8.09728 61.963 7.98959 62.495 7.99326C62.7266 7.99345 62.958 8.00715 63.188 8.0343C63.4228 8.06193 63.6544 8.0935 63.8803 8.1306V5.10972C63.7408 5.09361 63.6049 5.07614 63.4731 5.05921L63.4423 5.05525C63.1839 5.03209 62.9243 5.02286 62.6648 5.02762C62.1703 5.02828 61.6807 5.12155 61.2226 5.30232C60.7593 5.48098 60.3262 5.72632 59.938 6.03011C59.5633 6.32011 59.2302 6.65753 58.9476 7.03339C58.6885 7.36925 58.501 7.75192 58.3959 8.15902H58.3391V5.41204Z" fill="#212529"/>
<path fill-rule="evenodd" clip-rule="evenodd" d="M52.7539 17.2799C52.6507 17.1157 52.5987 16.8402 52.5987 16.4558V9.1455C52.5987 8.39456 52.4289 7.75807 52.0893 7.23603C51.7504 6.71405 51.2905 6.27638 50.7463 5.95806C50.1651 5.62035 49.5295 5.38018 48.8661 5.24763C48.1691 5.10089 47.4579 5.02706 46.7447 5.0274C45.9476 5.02618 45.1523 5.09993 44.3698 5.24763C43.6349 5.37972 42.9307 5.64021 42.2915 6.01647C41.6779 6.38236 41.1594 6.88072 40.7761 7.47284C40.378 8.07697 40.1519 8.83686 40.0977 9.75252H43.3233C43.3997 8.98684 43.7298 8.41982 44.3137 8.05145C44.8977 7.68308 45.6422 7.49889 46.5473 7.49889C46.8887 7.50105 47.2295 7.52452 47.5678 7.56915C47.9057 7.60987 48.2348 7.70259 48.5428 7.84384C48.8334 7.98036 49.0857 8.18322 49.2781 8.43508C49.4758 8.69188 49.5746 9.02157 49.5746 9.42415C49.5746 9.88198 49.4568 10.2253 49.2212 10.4543C48.951 10.7015 48.6196 10.8766 48.2592 10.9626C47.8011 11.0815 47.3328 11.1594 46.8601 11.1955C46.3001 11.2472 45.7431 11.3263 45.1912 11.4323C44.5131 11.5049 43.8393 11.6102 43.1698 11.748C42.5324 11.873 41.9209 12.1003 41.3603 12.4206C40.82 12.7354 40.3723 13.1802 40.0603 13.712C39.731 14.2619 39.5663 14.976 39.5663 15.8543C39.5631 16.5505 39.6985 17.1596 39.9726 17.6817C40.2326 18.1875 40.609 18.6283 41.0727 18.9699C41.5534 19.318 42.0952 19.5785 42.6717 19.7387C43.2869 19.9144 43.9252 20.0024 44.5664 20C45.4835 19.9923 46.3945 19.853 47.2696 19.5864C48.1531 19.3381 48.9616 18.8855 49.6258 18.2674C49.7585 18.9089 50.0416 19.3577 50.4749 19.614C50.9082 19.8703 51.4548 19.9984 52.1145 19.9984C52.2438 19.9984 52.399 19.9862 52.5855 19.9716L52.5955 19.9708C52.7864 19.9558 52.9757 19.9282 53.1642 19.8919C53.3533 19.8535 53.5372 19.8116 53.7159 19.7664C53.8947 19.7211 54.0406 19.6798 54.1539 19.6424V17.4725C54.0055 17.5067 53.8537 17.5249 53.7013 17.5269H53.3617C53.0602 17.5269 52.8571 17.4441 52.7539 17.2799ZM47.5654 13.0632C48.2842 12.999 48.8873 12.8114 49.3748 12.5004L49.3764 14.8322C49.3759 15.3263 49.2535 15.7428 49.0092 16.0817C48.7653 16.4194 48.4525 16.7048 48.0902 16.92C47.728 17.1375 47.3313 17.2954 46.9162 17.3873C46.5364 17.4746 46.1478 17.5204 45.7576 17.5239C45.4401 17.5223 45.1233 17.4959 44.8102 17.445C44.4761 17.3946 44.1514 17.2967 43.8466 17.1545C43.5585 17.0204 43.3032 16.8283 43.0975 16.5909C42.887 16.3447 42.7763 16.0322 42.7863 15.7123C42.7759 15.3578 42.8484 15.0056 42.9983 14.6822C43.1307 14.4118 43.33 14.1774 43.5785 14.0002C43.8368 13.8198 44.1232 13.6807 44.4267 13.5881C44.7502 13.4859 45.081 13.4067 45.4163 13.3513C46.1302 13.2235 46.8466 13.1274 47.5654 13.0632Z" fill="#212529"/>
<path d="M25 5.41199H28.5067L32.2109 16.3186H32.2678L35.8305 5.41199H39.1674L33.9358 19.6158H30.3161L25 5.41199Z" fill="#212529"/>
<path fill-rule="evenodd" clip-rule="evenodd" d="M89.5859 16.8134H89.529C89.3513 17.2474 89.103 17.6509 88.7937 18.0085C88.4567 18.398 88.0611 18.736 87.6205 19.011C87.135 19.3141 86.606 19.5455 86.0507 19.6978C85.4252 19.868 84.778 19.9512 84.1284 19.9448C82.5819 19.9448 81.3849 19.6199 80.5372 18.97C79.6894 18.3201 79.2653 17.3173 79.2648 15.9617C79.2648 15.1376 79.4343 14.4646 79.7734 13.9425C80.0952 13.4379 80.5361 13.015 81.0596 12.7088C81.593 12.4007 82.1762 12.1824 82.7845 12.0631C83.387 11.9394 83.9959 11.8474 84.6086 11.7876L86.2774 11.651C87.0504 11.5984 87.6584 11.5113 88.1015 11.3897C88.5435 11.2705 88.879 11.1056 89.1049 10.8956C89.3343 10.6781 89.4833 10.3931 89.529 10.0849C89.5903 9.67541 89.6175 9.26176 89.6103 8.84799C89.6132 8.47941 89.5359 8.11439 89.3836 7.77683C89.2218 7.43434 88.9798 7.13345 88.6767 6.89827C88.3076 6.6179 87.8843 6.41229 87.432 6.29362C86.9234 6.14732 86.3004 6.07418 85.5632 6.07418C84.2632 6.07418 83.2124 6.38545 82.4108 7.00799C81.6091 7.63053 81.1709 8.57382 81.0961 9.83785H80.0212C80.0971 8.28123 80.6116 7.1135 81.565 6.33466C82.5183 5.55583 83.8708 5.16667 85.6225 5.1672C87.3759 5.1672 88.6531 5.50136 89.4543 6.16969C90.2554 6.83801 90.6559 7.71263 90.6559 8.79353V17.0053C90.6559 17.2073 90.6606 17.4089 90.6698 17.6099C90.6767 17.7976 90.71 17.9835 90.7689 18.1625C90.8208 18.3185 90.9196 18.456 91.0524 18.5571C91.1841 18.6582 91.3726 18.7079 91.6212 18.7079C91.8869 18.7012 92.1518 18.6749 92.4134 18.629V19.5052C92.1274 19.5791 91.8326 19.6163 91.5367 19.6157C91.1034 19.6157 90.7594 19.5607 90.5048 19.4507C90.2737 19.3585 90.073 19.2064 89.9247 19.011C89.7882 18.8172 89.6967 18.5969 89.6566 18.3653C89.6072 18.0978 89.5835 17.8264 89.5859 17.5547V16.8134ZM89.586 11.5935C89.3211 11.9053 88.9213 12.1152 88.3835 12.225C87.7909 12.3423 87.1915 12.4248 86.5887 12.472L84.7784 12.6362C84.2503 12.6888 83.7225 12.7678 83.1949 12.873C82.6932 12.9648 82.2105 13.1366 81.7665 13.3814C81.3445 13.6183 80.9899 13.9536 80.7346 14.357C80.4709 14.7691 80.339 15.3048 80.339 15.9642C80.339 17.0077 80.6783 17.7813 81.357 18.2849C82.0357 18.7885 82.9687 19.0406 84.1561 19.0411C85.3813 19.0411 86.3522 18.8259 87.0689 18.3954C87.7855 17.9649 88.3323 17.4703 88.7093 16.9114C89.0884 16.3531 89.3287 15.8129 89.43 15.2908C89.5331 14.7691 89.586 14.4162 89.586 14.2331V11.5935Z" fill="#212529"/>
<path d="M93.6573 14.9189C93.6812 15.5247 93.8353 16.119 94.1099 16.6634C94.6237 17.6652 95.5318 18.4231 96.6286 18.7655C97.2223 18.9528 97.8432 19.0456 98.4673 19.0402C98.9742 19.0375 99.48 18.996 99.9802 18.9163C100.5 18.839 101.006 18.6863 101.479 18.4632C101.932 18.2506 102.324 17.9348 102.624 17.5428C102.926 17.1486 103.076 16.6487 103.076 16.043C103.076 15.2536 102.832 14.6584 102.345 14.2574C101.857 13.8564 101.24 13.5452 100.492 13.3236C99.7039 13.0938 98.9011 12.9147 98.0887 12.7876C97.2681 12.6599 96.4627 12.4529 95.6845 12.1696C94.9838 11.9226 94.3505 11.5232 93.8329 11.0021C93.3421 10.4985 93.0984 9.76176 93.1016 8.79189C93.1016 8.09568 93.2619 7.51418 93.5826 7.0474C93.8957 6.58684 94.3174 6.20553 94.8127 5.93519C95.3371 5.65185 95.905 5.45223 96.4946 5.34396C97.11 5.22551 97.7359 5.16576 98.3633 5.16556C99.078 5.16129 99.7905 5.2443 100.484 5.41263C101.105 5.55972 101.688 5.83127 102.195 6.20989C102.681 6.58301 103.068 7.06299 103.325 7.61022C103.599 8.17856 103.735 8.86557 103.731 9.67124H102.657C102.657 9.03028 102.549 8.48088 102.332 8.02305C102.131 7.58454 101.82 7.20193 101.427 6.91005C101.017 6.61479 100.551 6.40027 100.056 6.27856C99.5002 6.13692 98.9279 6.06737 98.3536 6.07175C97.8552 6.07247 97.3579 6.11845 96.8683 6.2091C96.397 6.29075 95.943 6.44843 95.5253 6.67561C95.1401 6.88681 94.8072 7.17755 94.5503 7.52733C94.2887 7.89854 94.1548 8.34063 94.1676 8.79031C94.1676 9.35865 94.3092 9.81649 94.5925 10.1638C94.8916 10.5246 95.2741 10.8118 95.7089 11.0021C96.2072 11.2248 96.7285 11.3952 97.264 11.5105C97.8393 11.6383 98.4191 11.7665 99.0036 11.8949C99.7202 12.0238 100.394 12.1748 101.025 12.348C101.607 12.5004 102.161 12.7415 102.665 13.0623C103.122 13.3587 103.495 13.7597 103.754 14.2298C104.019 14.7066 104.15 15.3118 104.15 16.0453C104.15 16.8152 103.971 17.4467 103.613 17.9398C103.257 18.4316 102.793 18.8397 102.254 19.1341C101.686 19.443 101.07 19.6565 100.429 19.7656C99.7812 19.8827 99.1234 19.9424 98.4641 19.944C97.6838 19.9511 96.9069 19.8446 96.159 19.6283C95.4811 19.433 94.8511 19.1059 94.3074 18.6668C93.7783 18.2357 93.3533 17.6967 93.0626 17.0881C92.7609 16.4655 92.6008 15.742 92.5824 14.9173L93.6573 14.9189Z" fill="#212529"/>
<path fill-rule="evenodd" clip-rule="evenodd" d="M106.212 12.6921V12.8571C106.209 13.6564 106.323 14.452 106.552 15.2197C106.76 15.9336 107.101 16.6042 107.559 17.1978C108.003 17.764 108.576 18.2232 109.232 18.5397C109.903 18.8697 110.682 19.0347 111.571 19.0347C113.026 19.0347 114.179 18.6637 115.03 17.9217C115.881 17.1797 116.467 16.1495 116.788 14.8313H117.863C117.543 16.4795 116.849 17.7425 115.784 18.6202C114.719 19.498 113.31 19.9374 111.559 19.9385C110.485 19.9385 109.547 19.7509 108.745 19.3757C107.966 19.0164 107.279 18.4905 106.739 17.8372C106.183 17.1535 105.774 16.3687 105.536 15.5291C105.266 14.595 105.132 13.6285 105.14 12.6582C105.136 11.697 105.272 10.74 105.547 9.81648C105.799 8.95192 106.216 8.14112 106.777 7.42629C107.327 6.7371 108.027 6.17434 108.827 5.77811C109.647 5.36606 110.613 5.16004 111.726 5.16004C112.743 5.16004 113.644 5.34422 114.426 5.71259C115.188 6.06388 115.859 6.57633 116.391 7.21238C116.93 7.865 117.338 8.61054 117.593 9.40996C117.871 10.2772 118.008 11.181 118 12.0891C118 12.1806 117.994 12.2856 117.985 12.4048C117.976 12.524 117.97 12.6203 117.97 12.6929L106.212 12.6921ZM116.901 11.7852C116.868 11.0436 116.735 10.3095 116.505 9.60178C116.292 8.93949 115.95 8.32312 115.498 7.78624C115.054 7.26488 114.504 6.83903 113.882 6.53589C113.207 6.21581 112.463 6.05592 111.712 6.06938C110.843 6.06938 110.077 6.22962 109.416 6.5501C108.775 6.8549 108.205 7.28485 107.743 7.81308C107.279 8.35307 106.923 8.97293 106.694 9.64046C106.449 10.3327 106.297 11.0527 106.24 11.7828L116.901 11.7852Z" fill="#212529"/>
</g>
</g>
</g>
</svg>
