<?xml version="1.0" encoding="utf-8"?>
<!-- Generator: Adobe Illustrator 17.0.0, SVG Export Plug-In . SVG Version: 6.00 Build 0)  -->
<!DOCTYPE svg PUBLIC "-//W3C//DTD SVG 1.1//EN" "http://www.w3.org/Graphics/SVG/1.1/DTD/svg11.dtd" [
	<!ENTITY ns_flows "http://ns.adobe.com/Flows/1.0/">
	<!ENTITY ns_extend "http://ns.adobe.com/Extensibility/1.0/">
	<!ENTITY ns_ai "http://ns.adobe.com/AdobeIllustrator/10.0/">
	<!ENTITY ns_graphs "http://ns.adobe.com/Graphs/1.0/">
	<!ENTITY ns_vars "http://ns.adobe.com/Variables/1.0/">
	<!ENTITY ns_imrep "http://ns.adobe.com/ImageReplacement/1.0/">
	<!ENTITY ns_sfw "http://ns.adobe.com/SaveForWeb/1.0/">
	<!ENTITY ns_custom "http://ns.adobe.com/GenericCustomNamespace/1.0/">
	<!ENTITY ns_adobe_xpath "http://ns.adobe.com/XPath/1.0/">
]>
<svg version="1.1" id="Layer_1" xmlns:x="&ns_extend;" xmlns:i="&ns_ai;" xmlns:graph="&ns_graphs;"
	 xmlns="http://www.w3.org/2000/svg" xmlns:xlink="http://www.w3.org/1999/xlink" xmlns:a="http://ns.adobe.com/AdobeSVGViewerExtensions/3.0/"
	 x="0px" y="0px" width="230px" height="65px" viewBox="0 0 230 65" enable-background="new 0 0 230 65" xml:space="preserve">
<metadata>
	<sfw  xmlns="&ns_sfw;">
		<slices></slices>
		<sliceSourceBounds  width="16383.088" height="16391.309" x="-7893" y="-8621.309" bottomLeftOrigin="true"></sliceSourceBounds>
		<optimizationSettings>
			<targetSettings  targetSettingsID="0" fileFormat="PNG24Format">
				<PNG24Format  transparency="true" interlaced="false" noMatteColor="false" filtered="false" matteColor="#FFFFFF">
					</PNG24Format>
			</targetSettings>
		</optimizationSettings>
	</sfw>
</metadata>
<g>
	<g>
		<g>
			<path fill="#2C3E50" d="M3.44,19.08h9.222l9.743,29.525h0.149l9.37-29.525h8.776L26.943,57.53h-9.52L3.44,19.08z"/>
			<path fill="#2C3E50" d="M75.06,48.977c0,2.083,0.447,2.901,2.008,2.901h0.892c0.372,0,0.744-0.074,1.19-0.149v5.875
				c-1.264,0.446-3.942,0.967-5.355,0.967c-3.495,0-5.876-1.19-6.544-4.685c-3.347,3.272-8.776,4.685-13.313,4.685
				c-6.917,0-13.164-3.719-13.164-11.23c0-9.594,7.66-11.156,14.8-11.974c6.173-1.19,11.528-0.372,11.528-5.429
				c0-4.462-4.611-5.206-7.958-5.206c-4.759,0-8.106,1.934-8.478,6.099h-8.478c0.595-9.892,8.925-12.792,17.477-12.792
				c7.511,0,15.395,3.049,15.395,11.156V48.977z M66.582,38.268c-2.603,1.711-6.619,1.636-10.412,2.306
				c-3.644,0.595-6.916,1.934-6.916,6.396c0,3.867,4.834,4.908,7.809,4.908c3.719,0,9.52-1.934,9.52-7.288V38.268z"/>
			<path fill="#2C3E50" d="M81.232,19.08h7.958v7.437h0.149c0.967-4.091,6.098-8.478,11.23-8.478c2.008,0,2.38,0.149,3.198,0.223
				v8.181c-1.19-0.223-2.454-0.372-3.644-0.372c-5.727,0-10.413,4.611-10.413,13.164V57.53h-8.478V19.08z"/>
			<path fill="#2C3E50" d="M133.664,49.349h-0.149c-3.198,6.024-7.809,9.073-14.651,9.073c-11.528,0-16.511-9.445-16.511-19.932
				c0-11.305,5.504-20.08,17.031-20.08c6.247,0,12.123,3.421,14.13,9.445h0.149V4.428h2.826V57.53h-2.826V49.349z M133.59,38.491
				c0-8.925-4.388-17.626-14.205-17.626c-10.115,0-14.205,8.404-14.205,17.626c0,8.999,4.463,17.478,14.28,17.478
				C129.127,55.968,133.59,47.267,133.59,38.491z"/>
			<path fill="#2C3E50" d="M158.28,18.411c11.305,0,17.552,9.148,17.552,20.006c0,10.933-6.247,20.006-17.552,20.006
				c-11.305,0-17.552-9.073-17.552-20.006C140.729,27.558,146.976,18.411,158.28,18.411z M158.28,55.968
				c9.52,0,14.725-8.404,14.725-17.552c0-9.148-5.206-17.552-14.725-17.552c-9.52,0-14.725,8.404-14.725,17.552
				C143.555,47.564,148.76,55.968,158.28,55.968z"/>
			<path fill="#2C3E50" d="M193.531,21.757h-8.33v26.7c0,6.099,2.901,6.842,8.255,6.619v2.454
				c-5.652,0.372-11.453-0.446-11.081-9.073v-26.7h-7.065v-2.454h7.065v-11.9h2.826v11.9h8.33V21.757z"/>
		</g>
		<path fill="#338EC7" d="M225.097,37.377h-16.796c-0.805,0-1.464,0.658-1.464,1.461v16.797c0,0.804,0.659,1.461,1.464,1.461h16.796
			c0.805,0,1.462-0.657,1.462-1.461V38.839C226.56,38.035,225.902,37.377,225.097,37.377z M221.214,50.287
			c0,0.805-0.656,1.465-1.464,1.465h-6.1c-0.805,0-1.464-0.66-1.464-1.465v-6.103c0-0.804,0.659-1.461,1.464-1.461h6.1
			c0.808,0,1.464,0.657,1.464,1.461V50.287z"/>
		<g>
			<g>
				<path fill="#636464" d="M198.626,4.666V4.484c0-0.033,0.028-0.055,0.061-0.055h2.875v0.177c0,0.033-0.028,0.061-0.061,0.061
					h-1.269v3.84c0,0.033-0.028,0.061-0.061,0.061h-0.226V4.666H198.626z"/>
				<path fill="#636464" d="M205.479,4.428h0.353v4.138h-0.226c-0.033,0-0.06-0.027-0.06-0.061V4.798c0,0-1.269,2.268-1.485,2.643
					c-0.016,0.027-0.055,0.05-0.088,0.05h-0.238c-0.033,0-0.077-0.022-0.093-0.05l-1.479-2.643v3.708
					c0,0.033-0.028,0.061-0.061,0.061h-0.226V4.428h0.354c0.011,0,0.039,0.017,0.043,0.028l1.584,2.786l1.578-2.786
					C205.441,4.445,205.468,4.428,205.479,4.428z"/>
			</g>
		</g>
	</g>
	<rect x="-36.006" y="-35.012" fill="none" width="302.011" height="133.023"/>
</g>
</svg>
