<?xml version="1.0" encoding="utf-8"?>
<!-- Generator: Adobe Illustrator 17.0.0, SVG Export Plug-In . SVG Version: 6.00 Build 0)  -->
<!DOCTYPE svg PUBLIC "-//W3C//DTD SVG 1.0//EN" "http://www.w3.org/TR/2001/REC-SVG-20010904/DTD/svg10.dtd">
<svg version="1.0" id="Layer_2" xmlns="http://www.w3.org/2000/svg" xmlns:xlink="http://www.w3.org/1999/xlink" x="0px" y="0px"
	 width="16px" height="16px" viewBox="0 0 16 16" enable-background="new 0 0 16 16" xml:space="preserve">
<g>
	<path fill="#FFFFFF" d="M0.045,7.997c0-0.732,0.095-1.438,0.285-2.117C0.52,5.2,0.788,4.565,1.136,3.973
		c0.347-0.592,0.763-1.13,1.248-1.615s1.021-0.9,1.611-1.248c0.589-0.347,1.224-0.615,1.903-0.806
		c0.68-0.19,1.385-0.285,2.117-0.285c0.731,0,1.438,0.095,2.117,0.285c0.68,0.19,1.314,0.459,1.903,0.806s1.126,0.763,1.611,1.248
		c0.484,0.485,0.9,1.023,1.247,1.615C15.24,4.564,15.509,5.2,15.699,5.88s0.285,1.385,0.285,2.117c0,0.731-0.095,1.437-0.285,2.113
		c-0.19,0.678-0.459,1.312-0.806,1.903s-0.763,1.13-1.247,1.615c-0.485,0.484-1.022,0.9-1.611,1.247s-1.224,0.615-1.903,0.806
		c-0.68,0.189-1.386,0.285-2.117,0.285c-0.732,0-1.438-0.096-2.117-0.285c-0.68-0.19-1.314-0.459-1.903-0.806
		s-1.126-0.763-1.611-1.247c-0.485-0.485-0.901-1.023-1.248-1.615S0.521,10.787,0.33,10.11C0.14,9.434,0.045,8.729,0.045,7.997z
		 M8.015,1.161c-0.627,0-1.232,0.082-1.814,0.246C5.618,1.571,5.074,1.801,4.568,2.098S3.601,2.751,3.185,3.167
		S2.413,4.044,2.116,4.55S1.589,5.6,1.425,6.182C1.26,6.765,1.179,7.37,1.179,7.997c0,0.628,0.082,1.231,0.246,1.814
		c0.164,0.582,0.395,1.125,0.691,1.629c0.297,0.503,0.653,0.965,1.069,1.383s0.877,0.774,1.383,1.069
		c0.506,0.294,1.05,0.523,1.633,0.688c0.582,0.164,1.187,0.246,1.814,0.246c0.628,0,1.232-0.082,1.814-0.246
		s1.126-0.394,1.632-0.688c0.507-0.295,0.968-0.651,1.384-1.069c0.415-0.418,0.771-0.88,1.069-1.383
		c0.297-0.504,0.525-1.047,0.688-1.629c0.161-0.583,0.242-1.187,0.242-1.814s-0.081-1.232-0.242-1.814
		c-0.162-0.582-0.391-1.126-0.688-1.632c-0.298-0.506-0.654-0.967-1.069-1.383c-0.416-0.416-0.877-0.772-1.384-1.069
		c-0.506-0.297-1.05-0.527-1.632-0.691S8.643,1.161,8.015,1.161z"/>
</g>
<g>
	<path fill="#FFFFFF" d="M11.439,10.517l-0.943,0.943L8,8.964L5.504,11.46l-0.943-0.943L7.057,8.02L4.561,5.524l0.943-0.949L8,7.077
		l2.496-2.502l0.943,0.949L8.943,8.02L11.439,10.517z"/>
</g>
</svg>
