<?xml version="1.0" encoding="utf-8"?>
<!-- Generator: Adobe Illustrator 18.1.1, SVG Export Plug-In . SVG Version: 6.00 Build 0)  -->
<svg version="1.1" id="Layer_1" xmlns="http://www.w3.org/2000/svg" xmlns:xlink="http://www.w3.org/1999/xlink" x="0px" y="0px"
	 viewBox="-249 83.1 381 416" enable-background="new -249 83.1 381 416" xml:space="preserve">
<g>
	<g>
		<path fill="#FFFFFF" d="M-69.7,312.5c-29.1,0-52.7,23.6-52.7,52.7c0,29.1,23.6,52.7,52.7,52.7c29.1,0,52.7-23.6,52.7-52.7
			C-17,336.1-40.6,312.5-69.7,312.5z"/>
	</g>
	<g>
		<path fill="#FFFFFF" d="M-4.1,302.4c15.6,16.3,25.2,38.4,25.2,62.8c0,30.9-15.4,58.1-38.9,74.5c43.5-13.4,79.5-46.1,95.6-85.7
			c22.3-54.8,1.5-96-33.3-133.4c1.1,4.8,1.7,9.9,1.7,15C46.1,267.4,24.9,294.1-4.1,302.4z"/>
	</g>
	<g>
		<path fill="#FFFFFF" d="M-63.7,235.7c0,22.3,18.1,40.3,40.3,40.3S17,257.9,17,235.7c0-22.3-18.1-40.3-40.3-40.3
			S-63.7,213.4-63.7,235.7z"/>
	</g>
	<g>
		<path fill="#FFFFFF" d="M-139.2,423.7c-13.3-15.8-21.3-36.2-21.3-58.5c0-46.5,34.9-84.8,80-90.1c-7.7-11.2-12.3-24.8-12.3-39.4
			c0-38.4,31.1-69.4,69.5-69.4c3.2,0,6.3,0.2,9.3,0.6c-22.7-19.6-45.4-39.5-63.3-61.2c9.1,95.2-86.7,60.6-122.2,148.4
			C-223.2,312.9-201.8,385.6-139.2,423.7z"/>
	</g>
</g>
</svg>
